<?xml version="1.0" standalone="no"?><!DOCTYPE svg PUBLIC "-//W3C//DTD SVG 1.1//EN" "http://www.w3.org/Graphics/SVG/1.1/DTD/svg11.dtd"><svg t="1636290540773" class="icon" viewBox="0 0 1024 1024" version="1.1" xmlns="http://www.w3.org/2000/svg" p-id="804" xmlns:xlink="http://www.w3.org/1999/xlink" width="200" height="200"><defs><style type="text/css"></style></defs><path d="M786.9 530.7m-63.9 0a63.9 63.9 0 1 0 127.8 0 63.9 63.9 0 1 0-127.8 0Z" p-id="805"></path><path d="M860.2 128H164c-55.2 0-100 44.8-100 100v375.1c0 55.2 44.8 100 100 100h314.9v64.7H358.7c-10.8 0-20.9 5.4-26.9 14.4l-42.1 63.1c-14.4 21.5 1.1 50.4 26.9 50.4h391c25.9 0 41.3-28.9 26.9-50.4l-42.1-63.1c-6-9-16.1-14.4-26.9-14.4H543.7v-64.7h316.5c55.2 0 100-44.8 100-100V228c0-55.2-44.8-100-100-100z m-73.3 512c-42.3 0-79-24.1-97.2-59.3H178.6c-27.6 0-50-22.4-50-50s22.4-50 50-50h511.2c18.1-35.2 54.8-59.3 97.2-59.3 60.3 0 109.3 48.9 109.3 109.3S847.3 640 786.9 640z m109.3-339c0 27.6-22.4 50-50 50H335c-18.1 35.2-54.8 59.3-97.2 59.3-60.3 0-109.3-48.9-109.3-109.3 0-60.3 48.9-109.3 109.3-109.3 42.3 0 79 24.1 97.2 59.3h511.2c27.6 0 50 22.4 50 50z" p-id="806"></path><path d="M237.9 301m-63.9 0a63.9 63.9 0 1 0 127.8 0 63.9 63.9 0 1 0-127.8 0Z" p-id="807"></path></svg>