<?xml version="1.0" standalone="no"?><!DOCTYPE svg PUBLIC "-//W3C//DTD SVG 1.1//EN" "http://www.w3.org/Graphics/SVG/1.1/DTD/svg11.dtd"><svg t="1636896218820" class="icon" viewBox="0 0 1190 1024" version="1.1" xmlns="http://www.w3.org/2000/svg" p-id="6062" xmlns:xlink="http://www.w3.org/1999/xlink" width="232.421875" height="200"><defs><style type="text/css"></style></defs><path d="M594.283808 267.286178m-70.145919 0a70.145919 70.145919 0 1 0 140.291839 0 70.145919 70.145919 0 1 0-140.291839 0Z" fill="#0066EB" p-id="6063"></path><path d="M1034.098722 715.368289q-5.649252 0-11.198295 0.41336L817.072258 472.763617l145.890986-181.627827a154.333548 154.333548 0 1 0-49.415295-40.822419l-138.663451 172.684222-155.786571-183.920096q-0.638829-0.764089-1.315236-1.4906l-0.200417-0.212943c-0.288099-0.300625-0.576199-0.601251-0.876824-0.88935l-0.876824-0.814194-0.263047-0.237995a31.891341 31.891341 0 0 0-18.388252-7.853838h-0.137786l-1.139871-0.06263H592.091748a31.891341 31.891341 0 0 0-19.578227 8.567823l-0.300625 0.288099c-0.275573 0.263047-0.53862 0.526094-0.801668 0.789142s-0.601251 0.638829-0.901876 0.977032l-0.150313 0.162839q-0.663881 0.751563-1.252605 1.553231L421.950316 425.377543l-147.807473-173.661254a153.832506 153.832506 0 1 0-49.903811 40.246221L381.353365 476.521434 188.915551 719.201263a154.346075 154.346075 0 1 0 59.536349 28.070893l175.239538-220.959645 79.9914 93.945427-0.363256 0.35073 7.515634 9.031287h183.506736c-0.563673-0.638829-1.139871-1.252606-1.71607-1.891435l83.561326-104.066481L956.437169 736.437117a153.957767 153.957767 0 1 0 77.661553-21.068828z m0-650.741188a89.937089 89.937089 0 1 1-89.937089 89.93709 90.037298 90.037298 0 0 1 89.937089-89.93709zM154.76952 244.488754a89.937089 89.937089 0 1 1 89.937089-89.937089 90.037298 90.037298 0 0 1-89.937089 89.937089z m0 714.837022a89.924563 89.924563 0 1 1 89.937089-89.93709 90.037298 90.037298 0 0 1-89.937089 89.924564z m484.031895-366.875684a134.316909 134.316909 0 0 0-77.548819-3.419614l-96.964207-113.899436L595.210736 310.050136l138.788712 163.840826zM1034.098722 959.31325a89.924563 89.924563 0 1 1 89.937089-89.93709 90.037298 90.037298 0 0 1-89.937089 89.93709z" fill="#0066EB" p-id="6064"></path><path d="M594.622012 584.834249a134.02881 134.02881 0 1 0 134.02881 134.02881 134.02881 134.02881 0 0 0-134.02881-134.02881z m0 204.174729a70.145919 70.145919 0 1 1 70.145919-70.145919 70.145919 70.145919 0 0 1-70.145919 70.145919z" fill="#00D929" p-id="6065"></path></svg>