<?xml version="1.0" standalone="no"?><!DOCTYPE svg PUBLIC "-//W3C//DTD SVG 1.1//EN" "http://www.w3.org/Graphics/SVG/1.1/DTD/svg11.dtd"><svg t="1636882543933" class="icon" viewBox="0 0 1024 1024" version="1.1" xmlns="http://www.w3.org/2000/svg" p-id="16603" xmlns:xlink="http://www.w3.org/1999/xlink" width="200" height="200"><defs><style type="text/css"></style></defs><path d="M924 0H100C45 0 0 45 0 100v824c0 55 45 100 100 100h824c55 0 100-45 100-100V100c0-55-45-100-100-100z m55 924c0 14.58-5.75 28.36-16.19 38.81S938.58 979 924 979H100c-14.58 0-28.36-5.75-38.81-16.19S45 938.58 45 924V315h934v609zM45 270V100c0-14.58 5.75-28.36 16.19-38.81C71.64 50.75 85.42 45 100 45h824c14.58 0 28.36 5.75 38.81 16.19C973.25 71.64 979 85.42 979 100v170H45z" fill="#303133" p-id="16604"></path><path d="M157.5 157.5m-22.5 0a22.5 22.5 0 1 0 45 0 22.5 22.5 0 1 0-45 0Z" fill="#303133" p-id="16605"></path><path d="M292.5 157.5m-22.5 0a22.5 22.5 0 1 0 45 0 22.5 22.5 0 1 0-45 0Z" fill="#303133" p-id="16606"></path><path d="M427.5 157.5m-22.5 0a22.5 22.5 0 1 0 45 0 22.5 22.5 0 1 0-45 0Z" fill="#303133" p-id="16607"></path><path d="M305.24 648.04c0-72.79 52.9-115.45 118.87-115.45 35.83 0 60.61 13.72 76.68 28.34l-26.45 28.04c-12.05-10.44-26.12-18.5-48.55-18.5-41.19 0-69.98 28.64-69.98 76.07 0 48.03 24.78 76.97 73.33 76.97 12.05 0 24.11-2.98 31.14-8.35V671.6H416.4v-36.1h88.06v99.64c-16.74 14.62-45.87 26.55-80.36 26.55-67.63 0.01-118.86-39.97-118.86-113.65zM541.97 674.29c0-55.79 43.19-88.01 90.07-88.01 46.88 0 90.07 32.22 90.07 88.01 0 55.19-43.19 87.41-90.07 87.41-46.88 0-90.07-32.22-90.07-87.41z m129.92 0c0-31.62-14.4-52.21-39.85-52.21-25.45 0-39.85 20.58-39.85 52.21 0 31.32 14.4 51.61 39.85 51.61 25.45 0 39.85-20.29 39.85-51.61z" fill="#303133" p-id="16608"></path></svg>