<?xml version="1.0" standalone="no"?><!DOCTYPE svg PUBLIC "-//W3C//DTD SVG 1.1//EN" "http://www.w3.org/Graphics/SVG/1.1/DTD/svg11.dtd"><svg t="1636883523608" class="icon" viewBox="0 0 1024 1024" version="1.1" xmlns="http://www.w3.org/2000/svg" p-id="26214" xmlns:xlink="http://www.w3.org/1999/xlink" width="200" height="200"><defs><style type="text/css"></style></defs><path d="M134.9 889.1c-111.1-111.1-26.2-366 181-573.2S778 23.7 889.1 134.9s26.2 366-181 573.2-462.1 292.2-573.2 181zM165 859c88.8 88.8 320.2 11.7 512.9-181S947.8 253.8 859 165s-320.2-11.7-512.9 181S76.2 770.2 165 859z m432.3-349.1c4.2 50-1.2 90.6-17 121.8-17.5 34.6-47.2 56.7-87.5 65.4-50.6 11-112.3-9.7-186.3-61 12.6 14.1 25.8 28.1 39.6 41.9C538.8 870.6 770.2 947.8 859 859c61.2-61.2 43.6-190.1-36.3-327.3l-4.3 4.5c-124.4-119.8-218-171.6-277-158.9-28 6.1-47 20.1-58.5 42.9-2.2 4.3-4.1 8.9-5.7 13.8 10.6-4.8 22.4-7.4 34.8-7.4 46.4 0.1 84.2 37.1 85.3 83.3z m-46.2 78c-11.7 6-25 9.4-39.1 9.4-40.6 0-74.6-28.4-83.2-66.4h-0.2c-0.1-0.5-0.1-1.1-0.2-1.6-1.1-5.6-1.8-11.4-1.8-17.3 0-1.6 0-3.3 0.1-4.9-1.9-42.9 3.9-78.2 18-106.1 17.5-34.6 47.2-56.7 87.5-65.4 54.4-11.8 121.7 13 203.2 73.2-17.9-21.2-37.1-42.2-57.7-62.8C485.2 153.4 253.8 76.2 165 165c-62.1 62.1-43 194 40 333.5l1.8-1.9c124.4 119.6 217.9 171.5 276.9 158.8 28-6.1 47-20.1 58.5-42.9 3.7-7.3 6.6-15.5 8.9-24.6z m338 301.2c-111.1 111.1-366 26.2-573.2-181S23.7 246 134.9 134.9s366-26.2 573.2 181 292.2 462.1 181 573.2zM512 554.7c23.6 0 42.7-19.1 42.7-42.7s-19.1-42.7-42.7-42.7-42.7 19.1-42.7 42.7 19.1 42.7 42.7 42.7z" fill="#7fbd17" p-id="26215"></path></svg>