<?xml version="1.0" standalone="no"?><!DOCTYPE svg PUBLIC "-//W3C//DTD SVG 1.1//EN" "http://www.w3.org/Graphics/SVG/1.1/DTD/svg11.dtd"><svg t="1636883504214" class="icon" viewBox="0 0 1024 1024" version="1.1" xmlns="http://www.w3.org/2000/svg" p-id="25757" xmlns:xlink="http://www.w3.org/1999/xlink" width="200" height="200"><defs><style type="text/css"></style></defs><path d="M796.059711 128.365195a482.807533 482.807533 0 0 1 34.969965 28.562639 17.254917 17.254917 0 1 0 23.064073-25.663813c-11.963409-10.755565-24.571002-21.050999-37.47768-30.621726a17.256067 17.256067 0 1 0-20.556358 27.7229z" fill="#515151" p-id="25758"></path><path d="M942.427421 234.839536a17.254917 17.254917 0 1 0-28.988261 18.715833 475.626037 475.626037 0 0 1 76.013661 258.559181c0 263.229511-214.145024 477.386038-477.386038 477.386038s-477.386038-214.156527-477.386038-477.386038 214.145024-477.386038 477.386038-477.386039a475.683553 475.683553 0 0 1 166.659492 29.908523 17.254917 17.254917 0 0 0 12.055436-32.335714 511.964892 511.964892 0 1 0 251.64571 202.538216z" fill="#515151" p-id="25759"></path><path d="M278.515729 477.765761L512.883516 354.186046l232.722818 123.579715L512.883516 129.29696 278.515729 477.765761z" fill="#515151" p-id="25760"></path><path d="M735.725018 516.071677L513.297634 393.734315 288.397045 516.071677l224.900589 118.621803 222.427384-118.621803z" fill="#515151" p-id="25761"></path><path d="M512.883516 897.899985l233.965172-344.764746-233.965172 114.929251-235.610141-114.929251L512.883516 897.899985z" fill="#515151" p-id="25762"></path></svg>