<?xml version="1.0" standalone="no"?><!DOCTYPE svg PUBLIC "-//W3C//DTD SVG 1.1//EN" "http://www.w3.org/Graphics/SVG/1.1/DTD/svg11.dtd"><svg t="1636883461344" class="icon" viewBox="0 0 1024 1024" version="1.1" xmlns="http://www.w3.org/2000/svg" p-id="24073" xmlns:xlink="http://www.w3.org/1999/xlink" width="200" height="200"><defs><style type="text/css"></style></defs><path d="M511.90226 722.428022c-9.330788 0-18.6343-3.719814-25.503397-11.079884-13.138113-14.080284-12.376648-36.145723 1.704773-49.283836l151.211045-141.104018c14.081421-13.141523 36.146859-12.376648 49.283836 1.704773 13.140386 14.079148 12.376648 36.144586-1.704772 49.282699L535.684972 713.051774a34.746673 34.746673 0 0 1-23.782712 9.376248z" p-id="24074" fill="#d4237a"></path><path d="M837.554717 722.428022a34.746673 34.746673 0 0 1-23.782713-9.376248L662.562095 571.947756c-14.081421-13.138113-14.844022-35.204688-1.704772-49.283836 13.140386-14.078011 35.204688-14.842886 49.284972-1.703636L861.353341 662.065438c14.080284 13.13925 14.842886 35.204688 1.703636 49.283836-6.866824 7.358935-16.172608 11.081021-25.503397 11.081021z" p-id="24075" fill="#d4237a"></path><path d="M673.212377 895.263538c-19.258246 0-34.870553-15.61117-34.870552-34.870552v-313.939534c0-19.258246 15.61117-34.870553 34.870552-34.870553s34.870553 15.61117 34.870553 34.870553v313.939534c-0.001137 19.259383-15.612306 34.870553-34.870553 34.870552zM872.327529 279.221274c-76.910242 0-139.482211-62.570832-139.48221-139.481074S795.417287 0.257989 872.327529 0.257989s139.481074 62.571969 139.481075 139.481074-62.570832 139.482211-139.481075 139.482211z m0-209.221043c-38.455121 0-69.741105 31.284848-69.741105 69.739969s31.285984 69.741105 69.741105 69.741105 69.739969-31.285984 69.739969-69.741105-31.284848-69.741105-69.739969-69.741106z" p-id="24076" fill="#d4237a"></path><path d="M767.715871 174.609616h-104.611658c-19.258246 0-34.870553-15.61117-34.870553-34.870553s15.61117-34.870553 34.870553-34.870552H767.715871c19.258246 0 34.870553 15.61117 34.870553 34.870552S786.974118 174.609616 767.715871 174.609616z" p-id="24077" fill="#d4237a"></path><path d="M360.89465 325.716102m-151.105349 0a151.10535 151.10535 0 1 0 302.210699 0 151.10535 151.10535 0 1 0-302.210699 0Z" fill="#d1c747" p-id="24078" data-spm-anchor-id="a313x.7781069.0.i36" class="selected"></path><path d="M268.035694 479.819578a34.715987 34.715987 0 0 1-21.415352-7.372572c-45.566295-35.527458-71.700457-89.010717-71.700457-146.733177 0-102.54661 83.428155-185.974766 185.974765-185.974766 31.333718 0 62.328755 7.951059 89.634664 22.993971 16.868155 9.293283 23.008746 30.500653 13.715463 47.369945-9.293283 16.865882-30.497243 23.008746-47.369945 13.714326-17.024994-9.379658-36.382118-14.338273-55.980182-14.338273-64.092626 0-116.234797 52.143307-116.234797 116.234797 0 36.078668 16.343085 69.514939 44.842336 91.733807 15.18725 11.842486 17.900111 33.754495 6.057625 48.940608-6.873643 8.819356-17.145465 13.431334-27.522984 13.431334zM872.327529 399.710047c-19.258246 0-34.870553-15.61117-34.870552-34.870553V244.350721c0-19.258246 15.61117-34.870553 34.870552-34.870552s34.870553 15.61117 34.870553 34.870552v120.489909c0 19.258246-15.612306 34.869416-34.870553 34.869417z" p-id="24079" fill="#d4237a"></path><path d="M953.691774 1023.12261H70.309363c-32.046313 0-58.11683-26.070517-58.11683-58.117966V58.375956C12.192533 26.329643 38.26305 0.259125 70.309363 0.259125h534.679156c32.045176 0 58.11683 26.070517 58.116831 58.116831V372.208657h290.58756c32.045176 0 58.11683 26.070517 58.11683 58.11683v534.679157c-0.002273 32.046313-26.07279 58.117967-58.117966 58.117966zM81.932502 953.381505h860.134996V441.948626H628.23366c-19.258246 0-34.870553-15.61117-34.870552-34.870553V69.999094h-511.431743v883.382411z m871.759272-511.432879h0.011365-0.011365z" p-id="24080" fill="#d4237a"></path></svg>