<?xml version="1.0" standalone="no"?><!DOCTYPE svg PUBLIC "-//W3C//DTD SVG 1.1//EN" "http://www.w3.org/Graphics/SVG/1.1/DTD/svg11.dtd"><svg t="1636883559868" class="icon" viewBox="0 0 1024 1024" version="1.1" xmlns="http://www.w3.org/2000/svg" p-id="28293" xmlns:xlink="http://www.w3.org/1999/xlink" width="200" height="200"><defs><style type="text/css"></style></defs><path d="M532.15763 144.004741a75.851852 75.851852 0 0 1 75.851851 75.851852v440.301037a75.851852 75.851852 0 0 1-75.851851 75.851851H491.861333a75.851852 75.851852 0 0 1-75.851852-75.851851V219.856593a75.851852 75.851852 0 0 1 75.851852-75.851852h40.296297z m256 111.995259a75.851852 75.851852 0 0 1 75.851851 75.851852V660.176593a75.851852 75.851852 0 0 1-75.851851 75.851851H747.861333a75.851852 75.851852 0 0 1-75.851852-75.851851V331.851852a75.851852 75.851852 0 0 1 75.851852-75.851852h40.296297z m-512 112.014222a75.851852 75.851852 0 0 1 75.851851 75.851852v216.291556a75.851852 75.851852 0 0 1-75.851851 75.851851H235.861333a75.851852 75.851852 0 0 1-75.851852-75.851851V443.847111a75.851852 75.851852 0 0 1 75.851852-75.851852h40.296297z" fill="#279CFF" p-id="28294"></path><path d="M160.009481 816.014222m32.009482 0l639.981037 0q32.009481 0 32.009481 32.009482l0-0.018963q0 32.009481-32.009481 32.009481l-639.981037 0q-32.009481 0-32.009482-32.009481l0 0.018963q0-32.009481 32.009482-32.009482Z" fill="#279CFF" fill-opacity=".5" p-id="28295"></path></svg>