<?xml version="1.0" standalone="no"?><!DOCTYPE svg PUBLIC "-//W3C//DTD SVG 1.1//EN" "http://www.w3.org/Graphics/SVG/1.1/DTD/svg11.dtd"><svg t="1636896171197" class="icon" viewBox="0 0 1024 1024" version="1.1" xmlns="http://www.w3.org/2000/svg" p-id="4696" xmlns:xlink="http://www.w3.org/1999/xlink" width="200" height="200"><defs><style type="text/css"></style></defs><path d="M554.666667 85.333333c0-23.466667-19.2-42.666667-42.666667-42.666666s-42.666667 19.2-42.666667 42.666666v192c0 23.466667 19.2 42.666667 42.666667 42.666667s42.666667-19.2 42.666667-42.666667V85.333333zM512 704c-23.466667 0-42.666667 19.2-42.666667 42.666667v192c0 23.466667 19.2 42.666667 42.666667 42.666666s42.666667-19.2 42.666667-42.666666v-192c0-23.466667-19.2-42.666667-42.666667-42.666667M981.333333 512c0-23.466667-19.2-42.666667-42.666666-42.666667h-192c-23.466667 0-42.666667 19.2-42.666667 42.666667s19.2 42.666667 42.666667 42.666667h192c23.466667 0 42.666667-19.2 42.666666-42.666667M85.333333 554.666667h192c23.466667 0 42.666667-19.2 42.666667-42.666667s-19.2-42.666667-42.666667-42.666667H85.333333c-23.466667 0-42.666667 19.2-42.666666 42.666667s19.2 42.666667 42.666666 42.666667M782.933333 179.2l-136.533333 136.533333c-17.066667 17.066667-17.066667 42.666667 0 59.733334 8.533333 8.533333 19.2 12.8 29.866667 12.8 10.666667 0 21.333333-4.266667 29.866666-12.8l136.533334-136.533334c17.066667-17.066667 17.066667-42.666667 0-59.733333-14.933333-14.933333-42.666667-14.933333-59.733334 0M211.2 855.466667c10.666667 0 21.333333-4.266667 29.866667-12.8l136.533333-136.533334c17.066667-17.066667 17.066667-42.666667 0-59.733333-17.066667-17.066667-42.666667-17.066667-59.733333 0l-136.533334 136.533333c-17.066667 17.066667-17.066667 42.666667 0 59.733334 6.4 8.533333 19.2 12.8 29.866667 12.8M782.933333 844.8c8.533333 8.533333 19.2 12.8 29.866667 12.8 10.666667 0 21.333333-4.266667 29.866667-12.8 17.066667-17.066667 17.066667-42.666667 0-59.733333l-136.533334-136.533334c-17.066667-17.066667-42.666667-17.066667-59.733333 0-17.066667 17.066667-17.066667 42.666667 0 59.733334l136.533333 136.533333zM375.466667 315.733333l-134.4-136.533333c-17.066667-17.066667-42.666667-17.066667-59.733334 0s-17.066667 42.666667 0 59.733333l136.533334 136.533334c8.533333 8.533333 19.2 12.8 29.866666 12.8 10.666667 0 21.333333-4.266667 29.866667-12.8 14.933333-14.933333 14.933333-42.666667-2.133333-59.733334" fill="#2F3CF4" p-id="4697"></path></svg>