<?xml version="1.0" standalone="no"?><!DOCTYPE svg PUBLIC "-//W3C//DTD SVG 1.1//EN" "http://www.w3.org/Graphics/SVG/1.1/DTD/svg11.dtd"><svg t="1636896140623" class="icon" viewBox="0 0 1024 1024" version="1.1" xmlns="http://www.w3.org/2000/svg" p-id="3866" xmlns:xlink="http://www.w3.org/1999/xlink" width="200" height="200"><defs><style type="text/css"></style></defs><path d="M845.815 750.614h0.059v-0.364l-0.059 0.364z m0 0" p-id="3867" fill="#1296db"></path><path d="M640.124 767.802H384.075v63.919H256.05v63.918h512.099v-63.918H640.124zM128.025 191.784v512.099h768.149V191.784H128.025z m704.137 448.181H192.037V255.953h640.124v384.012z" p-id="3868" fill="#1296db"></path><path d="M616.924 395.961c-16.232-41.42-62.896-72.035-115.645-72.035-62.893 0-113.613 41.42-121.731 93.644-34.488 10.805-60.864 41.42-60.864 77.436 0 45.023 40.576 81.039 91.299 81.039h202.883c50.72-5.404 91.298-43.221 91.298-90.043 0-46.821-38.549-84.639-87.24-90.041z m-19.412 116.088H427.139c-23.854 0-42.595-14.158-42.595-32.179 0-18.019 18.741-32.177 42.595-32.177 3.406 0 6.814 0 10.22 1.287 0-5.149-1.702-9.01-1.702-14.158 0-28.317 30.666-51.485 68.148-51.485s68.15 23.168 68.15 51.485v2.573c5.111-1.286 10.223-2.573 17.037-2.573 28.964 0 51.112 16.732 51.112 38.613 0.001 19.306-18.741 34.752-42.592 38.614z" p-id="3869" fill="#1296db"></path></svg>