<?xml version="1.0" standalone="no"?><!DOCTYPE svg PUBLIC "-//W3C//DTD SVG 1.1//EN" "http://www.w3.org/Graphics/SVG/1.1/DTD/svg11.dtd"><svg t="1636883001275" class="icon" viewBox="0 0 1024 1024" version="1.1" xmlns="http://www.w3.org/2000/svg" p-id="21411" xmlns:xlink="http://www.w3.org/1999/xlink" width="200" height="200"><defs><style type="text/css"></style></defs><path d="M512 479.786667m-76.16 0a76.16 76.16 0 1 0 152.32 0 76.16 76.16 0 1 0-152.32 0Z" p-id="21412"></path><path d="M298.752 631.210667l-16.853333-4.309334c-125.184-31.616-196.992-85.376-196.992-147.285333 0-61.952 71.850667-115.669333 196.992-147.285333l16.853333-4.266667 4.736 16.682667a832.298667 832.298667 0 0 0 48.469333 127.274666l3.626667 7.594667-3.626667 7.594667c-19.626667 41.088-35.882667 83.669333-48.469333 127.36l-4.736 16.64z m-24.618667-260.053334c-95.104 26.794667-153.514667 67.669333-153.514666 108.458667 0 40.704 58.368 81.621333 153.514666 108.373333 11.648-37.034667 25.728-73.258667 42.026667-108.373333a868.522667 868.522667 0 0 1-42.026667-108.458667z m451.072 260.053334l-4.693333-16.725334a837.461333 837.461333 0 0 0-48.512-127.317333l-3.626667-7.552 3.626667-7.637333c19.626667-41.002667 35.797333-83.626667 48.512-127.317334l4.693333-16.64 16.853334 4.266667c125.226667 31.616 196.992 85.333333 196.992 147.328 0 61.952-71.808 115.669333-196.992 147.285333l-16.853334 4.309334z m-17.493333-151.594667c17.066667 36.949333 31.274667 73.301333 42.112 108.373333 95.146667-26.752 153.557333-67.669333 153.557333-108.373333 0-40.789333-58.368-81.621333-153.557333-108.458667a882.474667 882.474667 0 0 1-42.112 108.458667z" p-id="21413"></path><path d="M273.877333 370.986667l-4.693333-16.64c-35.242667-124.074667-24.576-212.949333 29.312-243.925334 52.693333-30.506667 137.472 5.546667 226.261333 96.64l12.117334 12.458667-12.117334 12.416a841.301333 841.301333 0 0 0-86.186666 105.557333l-4.821334 6.912-8.362666 0.682667a838.229333 838.229333 0 0 0-134.698667 21.717333l-16.810667 4.181334z m67.498667-235.904c-9.557333 0-18.005333 2.090667-25.130667 6.186666-35.328 20.352-41.557333 91.221333-17.237333 186.88 38.016-8.405333 76.373333-14.421333 115.029333-17.792a898.474667 898.474667 0 0 1 73.088-90.581333c-55.594667-54.058667-108.074667-84.693333-145.749333-84.693333z m341.205333 724.650666c-50.688 0-115.797333-38.229333-183.381333-107.605333l-12.074667-12.416 12.074667-12.373333a845.952 845.952 0 0 0 86.229333-105.685334l4.778667-6.826666 8.277333-0.810667a830.848 830.848 0 0 0 134.741334-21.632l16.853333-4.266667 4.736 16.682667c35.072 123.989333 24.448 212.992-29.354667 243.968a84.394667 84.394667 0 0 1-42.88 10.965333z m-145.706666-120.32c55.552 54.058667 108.074667 84.736 145.706666 84.736 9.6 0 18.048-2.133333 25.130667-6.186666 35.370667-20.394667 41.642667-91.392 17.237333-187.050667-37.973333 8.448-76.373333 14.506667-115.114666 17.877333a875.776 875.776 0 0 1-72.96 90.624z" p-id="21414"></path><path d="M750.08 370.986667l-16.853333-4.224a831.018667 831.018667 0 0 0-134.741334-21.717334l-8.277333-0.725333-4.778667-6.912A834.176 834.176 0 0 0 499.2 231.850667l-12.074667-12.416 12.074667-12.373334c88.746667-91.050667 173.482667-127.104 226.261333-96.64 53.845333 31.018667 64.554667 119.893333 29.354667 243.925334l-4.736 16.64z m-140.245333-60.629334c40.704 3.626667 79.274667 9.728 115.114666 17.792 24.362667-95.658667 18.133333-166.528-17.237333-186.922666-35.157333-20.352-101.333333 10.794667-170.837333 78.549333 26.282667 28.586667 50.688 58.794667 72.96 90.581333zM341.376 859.733333a84.608 84.608 0 0 1-42.88-10.965333c-53.888-30.976-64.554667-119.936-29.354667-243.968l4.608-16.682667 16.853334 4.266667c41.130667 10.368 86.442667 17.664 134.741333 21.632l8.277333 0.810667 4.821334 6.826666c25.770667 37.461333 54.613333 72.832 86.186666 105.685334l12.117334 12.373333-12.117334 12.416c-67.541333 69.418667-132.650667 107.605333-183.253333 107.605333z m-42.368-228.778666c-24.32 95.658667-18.090667 166.656 17.237333 187.050666 35.2 20.053333 101.162667-10.88 170.88-78.592a903.253333 903.253333 0 0 1-73.088-90.581333 882.858667 882.858667 0 0 1-115.029333-17.877333z" p-id="21415"></path><path d="M512 653.354667c-29.312 0-59.392-1.237333-89.6-3.754667l-8.362667-0.725333-4.821333-6.912a1096.405333 1096.405333 0 0 1-48.042667-75.477334 1110.528 1110.528 0 0 1-41.429333-79.317333l-3.584-7.552 3.584-7.637333c12.757333-26.965333 26.538667-53.418667 41.429333-79.274667 14.805333-25.429333 30.976-50.858667 48.042667-75.52l4.821333-6.826667 8.362667-0.768a1072.981333 1072.981333 0 0 1 179.114667 0l8.277333 0.810667 4.821333 6.826667a1072.469333 1072.469333 0 0 1 89.6 154.794666l3.541334 7.637334-3.541334 7.552a1055.658667 1055.658667 0 0 1-89.6 154.794666l-4.821333 6.912-8.277333 0.725334c-30.122667 2.432-60.245333 3.712-89.514667 3.712z m-78.250667-38.570667c52.693333 3.968 103.808 3.968 156.458667 0a1044.010667 1044.010667 0 0 0 78.165333-135.168 1020.416 1020.416 0 0 0-78.165333-135.168 1018.752 1018.752 0 0 0-156.458667 0 1013.034667 1013.034667 0 0 0-78.165333 135.168 1058.986667 1058.986667 0 0 0 78.165333 135.168z" p-id="21416"></path></svg>