<?xml version="1.0" standalone="no"?><!DOCTYPE svg PUBLIC "-//W3C//DTD SVG 1.1//EN" "http://www.w3.org/Graphics/SVG/1.1/DTD/svg11.dtd"><svg t="1636882946959" class="icon" viewBox="0 0 1024 1024" version="1.1" xmlns="http://www.w3.org/2000/svg" p-id="19679" xmlns:xlink="http://www.w3.org/1999/xlink" width="200" height="200"><defs><style type="text/css"></style></defs><path d="M247.987001 693.495634c0 60.182684 54.235229 108.978017 109.493763 108.978017l0 108.978017c0 30.066783 25.167193 54.489008 55.258535 54.489008s55.258535-24.422226 55.258535-54.489008l0-107.764376 106.423845 0 0 107.764376c0 30.066783 25.167193 54.489008 55.258535 54.489008 30.088272 0 55.258535-24.422226 55.258535-54.489008L684.938748 802.472628c109.493763 0 109.493763-48.794309 109.493763-108.978017L794.432511 401.526933l-546.44551 0L247.987001 693.495634z" p-id="19680" fill="#7fbd17"></path><path d="M893.181559 421.051615c-30.088272 0-54.746882 24.373107-54.746882 54.489008l0 217.955011c0 30.066783 24.658609 54.489008 54.746882 54.489008s54.746882-24.422226 54.746882-54.489008L947.928441 475.540623C947.928441 445.423699 923.269831 421.051615 893.181559 421.051615z" p-id="19681" fill="#7fbd17"></path><path d="M130.818441 421.051615c-30.091342 0-54.746882 24.373107-54.746882 54.489008l0 217.955011c0 30.066783 24.65554 54.489008 54.746882 54.489008 30.091342 0 54.746882-24.422226 54.746882-54.489008L185.565323 475.540623C185.565323 445.423699 160.909783 421.051615 130.818441 421.051615z" p-id="19682" fill="#7fbd17"></path><path d="M792.641725 333.424882c0-65.288982-34.605146-122.874515-86.371136-155.3563L706.270589 58.060347l-56.352449 0 0 96.650247c-6.640234-1.515516-13.412474-2.673899-20.298302-3.440355-0.373507-7.220449-9.442046-28.196179-29.65746-28.196179L437.597453 123.07406c-20.300348 0-27.402093 21.211091-27.619034 28.314883-5.279237 0.618077-10.487865 1.472538-15.623839 2.533706L394.35458 58.060347 338.002131 58.060347l0 117.779474c-53.780881 32.031531-90.01513 90.775446-90.01513 157.585061l0 11.364839 544.655747 0L792.642748 333.424882zM393.523655 259.799024l-54.6906 0 0-54.6906 54.6906 0L393.523655 259.799024zM704.608739 257.468956l-54.6906 0 0-54.373375 54.6906 0L704.608739 257.468956z" p-id="19683" fill="#7fbd17"></path></svg>