<?xml version="1.0" standalone="no"?><!DOCTYPE svg PUBLIC "-//W3C//DTD SVG 1.1//EN" "http://www.w3.org/Graphics/SVG/1.1/DTD/svg11.dtd"><svg t="1636896715433" class="icon" viewBox="0 0 1024 1024" version="1.1" xmlns="http://www.w3.org/2000/svg" p-id="4991" xmlns:xlink="http://www.w3.org/1999/xlink" width="200" height="200"><defs><style type="text/css"></style></defs><path d="M620.086613 89.429333H197.522773a52.824747 52.824747 0 0 0-52.824746 52.824747v739.498667a52.824747 52.824747 0 0 0 52.824746 52.824746h633.862827a52.81792 52.81792 0 0 0 52.81792-52.824746V353.532587L620.086613 89.429333z" fill="#84BF56" p-id="4992"></path><path d="M672.91136 353.532587l211.285333 211.278506V353.532587h-211.285333z" fill="#5F9922" p-id="4993"></path><path d="M540.85632 459.175253c-87.517867 0-158.460587 70.956373-158.460587 158.467414 0 24.378027 5.67296 47.383893 15.50336 68.000426l-60.962133 60.770987c-10.328747 10.335573-9.591467 26.309973 0.709973 36.631893l37.341867 37.35552c10.356053 10.356053 25.593173 11.803307 35.88096 1.508694l61.617493-61.44c20.739413 9.905493 43.840853 15.633067 68.34176 15.633066 87.524693 0 158.467413-70.94272 158.467414-158.460586S628.374187 459.175253 540.85632 459.175253z m0 264.103254c-58.34752 0-105.642667-47.295147-105.642667-105.63584S482.515627 512 540.85632 512c58.34752 0 105.642667 47.3088 105.642667 105.642667-0.006827 58.340693-47.301973 105.63584-105.642667 105.63584z" fill="#FFFFFF" p-id="4994"></path><path d="M620.086613 89.429333v211.285334a52.824747 52.824747 0 0 0 52.824747 52.824746h211.285333L620.086613 89.429333z" fill="#434854" p-id="4995"></path></svg>