<?xml version="1.0" standalone="no"?><!DOCTYPE svg PUBLIC "-//W3C//DTD SVG 1.1//EN" "http://www.w3.org/Graphics/SVG/1.1/DTD/svg11.dtd"><svg t="1636896672093" class="icon" viewBox="0 0 1024 1024" version="1.1" xmlns="http://www.w3.org/2000/svg" p-id="3185" xmlns:xlink="http://www.w3.org/1999/xlink" width="200" height="200"><defs><style type="text/css"></style></defs><path d="M930.909091 1024H93.090909c-51.2 0-93.090909-41.890909-93.090909-93.090909V279.272727c0-51.2 41.890909-93.090909 93.090909-93.090909h837.818182c51.2 0 93.090909 41.890909 93.090909 93.090909v651.636364c0 51.2-41.890909 93.090909-93.090909 93.090909zM139.636364 930.909091h744.727272c27.927273 0 46.545455-18.618182 46.545455-46.545455V325.818182c0-27.927273-18.618182-46.545455-46.545455-46.545455H93.090909v605.090909c0 27.927273 18.618182 46.545455 46.545455 46.545455z" fill="#0e932e" p-id="3186"></path><path d="M744.727273 279.272727H279.272727V46.545455c0-27.927273 18.618182-46.545455 46.545455-46.545455h372.363636c27.927273 0 46.545455 18.618182 46.545455 46.545455v232.727272zM372.363636 186.181818h279.272728V93.090909H372.363636v93.090909zM46.545455 605.090909h930.90909v93.090909H46.545455z" fill="#0e932e" p-id="3187"></path><path d="M400.290909 628.363636h-93.090909v-97.745454c0-27.927273 18.618182-46.545455 46.545455-46.545455s46.545455 18.618182 46.545454 46.545455v97.745454zM716.8 628.363636h-93.090909v-97.745454c0-27.927273 18.618182-46.545455 46.545454-46.545455s46.545455 18.618182 46.545455 46.545455v97.745454z" fill="#0e932e" p-id="3188"></path></svg>