<?xml version="1.0" standalone="no"?><!DOCTYPE svg PUBLIC "-//W3C//DTD SVG 1.1//EN" "http://www.w3.org/Graphics/SVG/1.1/DTD/svg11.dtd"><svg t="1636896520413" class="icon" viewBox="0 0 1024 1024" version="1.1" xmlns="http://www.w3.org/2000/svg" p-id="2444" xmlns:xlink="http://www.w3.org/1999/xlink" width="200" height="200"><defs><style type="text/css"></style></defs><path d="M768.4096 161.792c-13.9264 20.8896-22.1184 45.8752-22.1184 72.9088 0 72.704 59.1872 131.8912 131.8912 131.8912s131.8912-59.1872 131.8912-131.8912-59.1872-131.8912-131.8912-131.8912c-19.8656 0-38.7072 4.5056-55.5008 12.288C737.0752 40.7552 628.1216 0 514.2528 0c-70.656 0-138.6496 15.36-202.1376 45.4656-17.6128 8.3968-24.9856 29.4912-16.7936 47.104 8.3968 17.6128 29.4912 24.9856 47.104 16.7936 53.8624-25.6 111.616-38.7072 171.8272-38.7072 93.3888 0 182.6816 32.1536 254.1568 91.136z m171.2128 72.9088c0 33.792-27.4432 61.2352-61.2352 61.2352S817.152 268.4928 817.152 234.7008s27.4432-61.2352 61.2352-61.2352 61.2352 27.4432 61.2352 61.2352zM312.32 816.5376c-122.2656-71.68-198.4512-204.1856-198.4512-345.7024 0-35.84 4.7104-71.2704 14.1312-105.472 5.7344 0.8192 11.6736 1.2288 17.8176 1.2288 72.704 0 131.8912-59.1872 131.8912-131.8912s-59.1872-131.8912-131.8912-131.8912S13.9264 161.9968 13.9264 234.7008c0 41.1648 19.0464 78.0288 48.7424 102.4-12.9024 43.2128-19.456 88.2688-19.456 133.7344 0 166.5024 89.2928 322.3552 233.2672 406.528 5.5296 3.2768 11.6736 4.9152 17.8176 4.9152 12.0832 0 23.9616-6.3488 30.5152-17.408 9.8304-16.7936 4.3008-38.5024-12.4928-48.3328z m-166.7072-643.072c33.792 0 61.2352 27.4432 61.2352 61.2352s-27.4432 61.2352-61.2352 61.2352-61.2352-27.4432-61.2352-61.2352 27.4432-61.2352 61.2352-61.2352zM949.8624 435.6096c-19.456 0-35.2256 15.7696-35.2256 35.2256 0 174.4896-111.616 326.656-275.0464 380.3136-17.2032-52.6336-66.9696-90.9312-125.3376-90.9312-72.704 0-131.8912 59.1872-131.8912 131.8912s59.1872 131.8912 131.8912 131.8912c61.6448 0 113.664-42.5984 128-99.9424 202.752-56.9344 343.04-241.2544 343.04-453.2224-0.2048-19.456-15.9744-35.2256-35.4304-35.2256zM514.2528 953.344c-33.792 0-61.2352-27.4432-61.2352-61.2352s27.4432-61.2352 61.2352-61.2352 61.2352 27.4432 61.2352 61.2352-27.4432 61.2352-61.2352 61.2352z" fill="#13227a" p-id="2445"></path></svg>