<?xml version="1.0" standalone="no"?><!DOCTYPE svg PUBLIC "-//W3C//DTD SVG 1.1//EN" "http://www.w3.org/Graphics/SVG/1.1/DTD/svg11.dtd"><svg t="1636896780721" class="icon" viewBox="0 0 1024 1024" version="1.1" xmlns="http://www.w3.org/2000/svg" p-id="6146" xmlns:xlink="http://www.w3.org/1999/xlink" width="200" height="200"><defs><style type="text/css"></style></defs><path d="M805.096727 186.810182H218.903273c-17.687273 0-32.116364 14.405818-32.116364 32.116363v586.170182c0 17.687273 14.429091 32.116364 32.116364 32.116364h586.193454c17.687273 0 32.116364-14.429091 32.116364-32.116364V218.903273c0-17.687273-14.429091-32.116364-32.116364-32.116364z m0-46.545455a78.685091 78.685091 0 0 1 78.661818 78.661818v586.170182a78.685091 78.685091 0 0 1-78.661818 78.661818H218.903273a78.685091 78.685091 0 0 1-78.661818-78.661818V218.903273a78.685091 78.685091 0 0 1 78.661818-78.661818h586.193454z" fill="#21A3DD" p-id="6147"></path><path d="M581.818182 465.454545h162.909091v-162.90909h-162.909091v162.90909z m-23.272727-186.181818h209.454545v209.454546h-209.454545v-209.454546zM372.363636 744.727273c51.386182 0 93.090909-41.751273 93.090909-93.090909 0-51.386182-41.751273-93.090909-93.090909-93.090909-51.386182 0-93.090909 41.751273-93.090909 93.090909 0 51.386182 41.751273 93.090909 93.090909 93.090909z m0 23.272727c-64.116364 0-116.363636-52.037818-116.363636-116.363636 0-64.116364 52.037818-116.363636 116.363636-116.363637 64.116364 0 116.363636 52.037818 116.363637 116.363637 0 64.116364-52.037818 116.363636-116.363637 116.363636zM736.907636 721.454545l-80.663272-139.636363-80.663273 139.636363h161.326545zM535.272727 744.727273l120.971637-209.454546 120.971636 209.454546H535.272727zM417.093818 393.774545l44.776727-43.52-61.812363-8.96L372.363636 285.253818l-27.694545 56.040727-61.905455 8.983273 44.683637 43.52-10.519273 61.672727 55.226182-29.090909 55.458909 29.137455-10.519273-61.742546z m24.994909 8.145455l16.384 96.116364-86.318545-45.381819-86.109091 45.381819 16.407273-96.116364L232.727273 334.010182l96.488727-13.963637L372.363636 232.727273l43.147637 87.296 96.488727 13.963636-69.911273 67.956364z" fill="#21A3DD" p-id="6148"></path></svg>