<?xml version="1.0" standalone="no"?><!DOCTYPE svg PUBLIC "-//W3C//DTD SVG 1.1//EN" "http://www.w3.org/Graphics/SVG/1.1/DTD/svg11.dtd"><svg t="1636265468714" class="icon" viewBox="0 0 1024 1024" version="1.1" xmlns="http://www.w3.org/2000/svg" p-id="3599" xmlns:xlink="http://www.w3.org/1999/xlink" width="200" height="200"><defs><style type="text/css"></style></defs><path d="M0 0h1024v1024H0z" fill="#FFFFFF" p-id="3600"></path><path d="M480.64 220.4288c30.5152-44.5056 96.2048-44.5056 126.72 0l85.9648 125.4656a76.8 76.8 0 0 0 41.6384 30.2464l145.8816 43.008c51.7632 15.2448 72.064 77.7216 39.1552 120.4864l-92.7488 120.5504a76.8 76.8 0 0 0-15.8976 48.9344l4.1856 152.0384c1.472 53.9392-51.6608 92.544-102.5024 74.4704L569.728 884.672a76.8 76.8 0 0 0-51.456 0l-143.3088 50.944c-50.8288 18.0864-103.9744-20.5184-102.5024-74.4576l4.1856-152.0384a76.8 76.8 0 0 0-15.8976-48.9344l-92.7488-120.5504c-32.896-42.752-12.608-105.2288 39.1552-120.4864l145.8816-43.008a76.8 76.8 0 0 0 41.6384-30.2464l85.9776-125.4656z" fill="#F0F9FE" p-id="3601"></path><path d="M427.5328 77.952c40.6784-59.3408 128.256-59.3408 168.9344 0l115.328 168.2816a51.2 51.2 0 0 0 27.7504 20.16l195.6736 57.6768c69.0048 20.352 96.0768 103.6544 52.1984 160.6656l-124.4032 161.6768a51.2 51.2 0 0 0-10.5984 32.64l5.6064 203.904c1.984 71.936-68.8768 123.4048-136.6656 99.3024l-192.2048-68.352a51.2 51.2 0 0 0-34.304 0l-192.2048 68.352c-67.7888 24.1024-138.6496-27.3792-136.6656-99.3024l5.6064-203.904a51.2 51.2 0 0 0-10.5984-32.64l-124.4032-161.664C-7.296 427.6992 19.776 344.4096 88.7936 324.0576l195.6608-57.6768a51.2 51.2 0 0 0 27.7632-20.16L427.52 77.952z m126.6944 28.9536c-20.3264-29.6704-64.128-29.6704-84.4672 0l-115.3152 168.2688a102.4 102.4 0 0 1-55.5136 40.3328L103.2704 373.184c-34.5088 10.176-48.0384 51.8272-26.112 80.3328l124.4032 161.6768a102.4 102.4 0 0 1 21.1968 65.2544l-5.6064 203.9168c-0.9856 35.968 34.432 61.696 68.3392 49.664l192.2048-68.352a102.4 102.4 0 0 1 68.608 0l192.2048 68.352c33.8944 12.032 69.3248-13.696 68.3392-49.664l-5.6064-203.904a102.4 102.4 0 0 1 21.1968-65.2672l124.4032-161.664c21.9392-28.5184 8.3968-70.1696-26.112-80.3456L725.0816 315.52a102.4 102.4 0 0 1-55.5136-40.3328l-115.328-168.2688z" fill="#3A4453" p-id="3602"></path><path d="M335.0016 555.392a51.2 51.2 0 0 1 72.3968 0c59.9936 59.968 157.248 59.968 217.2288 0a51.2 51.2 0 1 1 72.4096 72.3968c-99.968 99.968-262.0672 99.968-362.0352 0a51.2 51.2 0 0 1 0-72.4096z" fill="#4FB5F5" p-id="3603"></path></svg>