<?xml version="1.0" standalone="no"?><!DOCTYPE svg PUBLIC "-//W3C//DTD SVG 1.1//EN" "http://www.w3.org/Graphics/SVG/1.1/DTD/svg11.dtd"><svg t="1636265433119" class="icon" viewBox="0 0 1024 1024" version="1.1" xmlns="http://www.w3.org/2000/svg" p-id="3442" xmlns:xlink="http://www.w3.org/1999/xlink" width="200" height="200"><defs><style type="text/css"></style></defs><path d="M0 0h1024v1024H0z" fill="#FFFFFF" p-id="3443"></path><path d="M908.8 115.2m0 128l0 409.6q0 128-128 128l-409.6 0q-128 0-128-128l0-409.6q0-128 128-128l409.6 0q128 0 128 128Z" fill="#F0F9FE" p-id="3444"></path><path d="M934.4 610.6368a25.6 25.6 0 0 1 25.6 25.6V755.2c0 113.1136-91.6864 204.8-204.8 204.8H268.8c-113.1136 0-204.8-91.6864-204.8-204.8V268.8c0-113.1136 91.6864-204.8 204.8-204.8h118.9632a25.6 25.6 0 1 1 0 51.2H268.8C183.9744 115.2 115.2 183.9744 115.2 268.8v486.4c0 84.8256 68.7744 153.6 153.6 153.6h486.4c84.8256 0 153.6-68.7744 153.6-153.6v-118.9632a25.6 25.6 0 0 1 25.6-25.6z" fill="#3A4453" p-id="3445"></path><path d="M473.6 115.2a51.2 51.2 0 0 1 51.2-51.2h307.2c70.6944 0 128 57.3056 128 128v307.2a51.2 51.2 0 0 1-102.4 0V192a25.6 25.6 0 0 0-25.6-25.6H524.8a51.2 51.2 0 0 1-51.2-51.2z" fill="#4FB5F5" p-id="3446"></path><path d="M919.3984 104.6016a51.2 51.2 0 0 1 0 72.3968l-409.6 409.6a51.2 51.2 0 1 1-72.3968-72.3968l409.6-409.6a51.2 51.2 0 0 1 72.3968 0z" fill="#4FB5F5" p-id="3447"></path></svg>