<?xml version="1.0" standalone="no"?><!DOCTYPE svg PUBLIC "-//W3C//DTD SVG 1.1//EN" "http://www.w3.org/Graphics/SVG/1.1/DTD/svg11.dtd"><svg t="1636724808739" class="icon" viewBox="0 0 1024 1024" version="1.1" xmlns="http://www.w3.org/2000/svg" p-id="2455" xmlns:xlink="http://www.w3.org/1999/xlink" width="200" height="200"><defs><style type="text/css"></style></defs><path d="M512 128.22c49.68 0 96.39 19.35 131.52 54.48C678.65 217.83 698 264.54 698 314.22s-19.35 96.39-54.48 131.52c-35.13 35.13-81.84 54.48-131.52 54.48s-96.39-19.35-131.52-54.48C345.35 410.61 326 363.91 326 314.22s19.35-96.39 54.48-131.52c35.13-35.13 81.84-54.48 131.52-54.48m0-64c-138.07 0-250 111.93-250 250s111.93 250 250 250 250-111.93 250-250-111.93-250-250-250z" p-id="2456"></path><path d="M896.21 945.07c-16.78 0-30.75-12.96-31.92-29.71-13.73-196.15-162.31-351.11-342.96-351.11-180.65 0-329.22 154.96-342.96 351.11-1.17 16.74-15.13 29.71-31.92 29.71-18.6 0-33.22-15.8-31.93-34.35 3.31-47.57 13.53-93.8 30.5-137.84 20.37-52.88 49.57-100.4 86.78-141.26 37.41-41.07 81.04-73.35 129.69-95.95 50.61-23.5 104.38-35.42 159.83-35.42 55.45 0 109.22 11.92 159.83 35.42 48.65 22.59 92.28 54.87 129.69 95.95 37.21 40.86 66.41 88.39 86.78 141.26 16.97 44.04 27.18 90.27 30.5 137.84 1.31 18.55-13.31 34.35-31.91 34.35z" p-id="2457"></path></svg>